<svg width="44" height="45" viewBox="0 0 44 45" fill="none" xmlns="http://www.w3.org/2000/svg">
  <circle cx="22" cy="22.5" r="22" fill="#CFD4D9"/>
  <path d="M21.9978 11.9531C19.2364 11.9531 16.9978 14.1917 16.9978 16.9531C16.9978 19.7145 19.2364 21.9531 21.9978 21.9531C24.7592 21.9531 26.9978 19.7145 26.9978 16.9531C26.9978 14.1917 24.7592 11.9531 21.9978 11.9531ZM18.4666 23.2656C15.8523 23.9801 13.9978 26.2533 13.9978 28.9531V30.9531C13.9978 31.5054 14.4455 31.9531 14.9978 31.9531H28.9978C29.5501 31.9531 29.9978 31.5054 29.9978 30.9531V28.9531C29.9978 26.2533 28.1433 23.9801 25.529 23.2656C25.3049 23.2043 25.0847 23.2326 24.8728 23.3281C23.9573 23.7407 22.9827 23.9531 21.9978 23.9531C21.0129 23.9531 20.0383 23.7407 19.1228 23.3281C18.9109 23.2326 18.6907 23.2043 18.4666 23.2656Z" fill="white"/>
</svg>
